Coordinates
version=1
nRows=8
nColumns=34
inDegrees=yes

Units are S.I. units (second, meters, Newtons, ...)
If the header above contains a line with 'inDegrees', this indicates whether rotational values are in degrees (yes) or radians (no).

endheader
time	pelvis_tilt	pelvis_list	pelvis_rotation	pelvis_tx	pelvis_ty	pelvis_tz	hip_flexion_r	hip_adduction_r	hip_rotation_r	knee_angle_r	ankle_angle_r	subtalar_angle_r	mtp_angle_r	hip_flexion_l	hip_adduction_l	hip_rotation_l	knee_angle_l	ankle_angle_l	subtalar_angle_l	mtp_angle_l	lumbar_extension	lumbar_bending	lumbar_rotation	arm_flex_r	arm_add_r	arm_rot_r	elbow_flex_r	pro_sup_r	arm_flex_l	arm_add_l	arm_rot_l	elbow_flex_l	pro_sup_l
      2.20000000	      3.27524024	    -29.68983206	    -33.61612390	      1.18814801	      1.05016376	     -0.49739808	     -3.38331398	     30.00000025	     22.59108573	      0.00000000	     -3.97136369	    -35.00000000	      0.00000000	    -30.00000025	    -19.56508634	    -18.53793601	     38.12498720	     21.79806137	     13.10468164	      0.00000000	    -62.78937318	     29.13610502	     12.02331464	     16.36411127	     -8.59893406	     -7.29116628	     29.96730628	    115.21114820	     17.43789649	      6.71808139	    -22.10915668	     42.56724715	    119.67198793
      2.21666670	      4.27507619	    -30.28461361	    -31.97261408	      1.20712163	      1.05183679	     -0.49087375	     -6.05228732	     30.00000025	     22.87241657	      0.00000000	     -3.05731285	    -35.00000000	      0.00000000	    -30.00000025	    -21.07356275	    -18.05788851	     40.00585087	     21.40854008	     13.06012195	      0.00000000	    -63.09213450	     30.25136850	     11.48651500	     15.97926417	     -8.51416749	     -7.19522897	     30.38652544	    115.29344487	     16.61285981	      7.19382503	    -22.09943483	     41.62621479	    119.73379931
      2.23333330	      5.53947185	    -30.85696289	    -30.50438042	      1.22657086	      1.05378594	     -0.48279536	     -9.14463149	     30.00000025	     23.44346765	      0.00000000	     -2.37904182	    -35.00000000	      0.00000000	    -30.00000025	    -22.57182177	    -18.16636269	     41.64141331	     22.61163991	     12.34094922	      0.00000000	    -63.38954317	     30.79004547	     11.11587339	     15.38163584	     -8.24503316	     -7.14954637	     30.90939912	    115.37985248	     15.71926284	      7.53476281	    -22.04961414	     40.69087191	    119.74817918
      2.25000000	      7.36250214	    -31.62118270	    -28.97788659	      1.24511605	      1.05649172	     -0.47472669	    -12.85493890	     30.00000025	     24.09374593	      0.00000000	     -1.92255374	    -35.00000000	      0.00000000	    -30.00000025	    -24.17450773	    -18.21759904	     43.76001386	     23.90862031	     10.90063380	      0.00000000	    -64.10844839	     30.92437284	     10.94717145	     14.50303907	     -7.93374798	     -7.27902813	     31.86266128	    115.54126327	     14.93376907	      7.83040811	    -21.91157935	     39.50178829	    119.74817918
      2.26666670	      9.73030644	    -32.69335246	    -27.63518359	      1.26161154	      1.05830240	     -0.46710384	    -17.19119102	     30.00000025	     25.16236446	      0.00000000	     -1.32678952	    -35.00000000	      0.00000000	    -30.00000025	    -25.96375996	    -17.94421254	     47.49161658	     24.46150388	      8.75044935	      0.00000000	    -65.38248086	     30.50933382	     11.24824490	     13.61226381	     -7.48090626	     -7.58019195	     32.59132244	    115.71218177	     14.17203410	      8.15193642	    -21.80604474	     38.60618319	    119.74817918
      2.28333330	     12.46030953	    -33.99337911	    -26.32213289	      1.27533098	      1.05998257	     -0.46024346	    -21.79675146	     30.00000025	     26.20826302	      0.00000000	     -0.67818005	    -35.00000000	      0.00000000	    -30.00000025	    -27.91265549	    -17.32056205	     52.17107428	     25.61392529	      6.61438347	      0.00000000	    -67.21722454	     29.86528778	     11.78549166	     12.84616441	     -6.87209972	     -7.99016464	     33.44834652	    115.87497049	     13.47223944	      8.40586142	    -21.81160478	     37.86108961	    119.74817918
      2.30000000	     15.11633446	    -35.30634629	    -25.14988283	      1.28666408	      1.06299509	     -0.45392412	    -26.15751734	     30.00000025	     27.24119659	      0.00000000	      0.04613520	    -35.00000000	      0.00000000	    -30.00000025	    -29.74770284	    -16.65959922	     56.61792845	     28.84948066	      4.42019633	      0.00000000	    -69.36732129	     29.08403074	     13.28358497	     11.16753752	     -6.09333542	    -10.31190220	     36.82429276	    116.44218881	     13.09626619	      8.77956817	    -21.56791510	     37.01963256	    119.74817918
      2.31666670	     17.32563084	    -36.46973195	    -24.30456379	      1.29831792	      1.06350282	     -0.44554192	    -30.00000025	     30.00000025	     28.33104655	      0.00000000	      0.67101501	    -35.00000000	      0.00000000	    -29.90852320	    -31.51121059	    -16.40275134	     60.51198852	     34.36013184	      3.37971704	      0.00000000	    -70.91432384	     28.04747699	     14.56640894	     10.62539841	     -5.44158546	    -10.83842061	     37.28543036	    116.87200926	     12.57699283	      9.07296149	    -21.36846812	     36.20835953	    119.74817918
